<svg width="71" height="71" viewBox="0 0 71 71" fill="none" xmlns="http://www.w3.org/2000/svg">
<path d="M35.5 44.375C46.5284 44.375 55.4688 35.7658 55.4688 25.1459C55.4688 14.5259 46.5284 5.91669 35.5 5.91669C24.4716 5.91669 15.5312 14.5259 15.5312 25.1459C15.5312 35.7658 24.4716 44.375 35.5 44.375Z" fill="#7E350D"/>
<path d="M46.7121 46.1794C47.6883 45.6765 48.8125 46.4161 48.8125 47.5106V61.8586C48.8125 64.5211 46.9487 65.8227 44.6413 64.7281L36.7129 60.9711C36.0325 60.6752 34.9675 60.6752 34.2871 60.9711L26.3587 64.7281C24.0512 65.7931 22.1875 64.4915 22.1875 61.829L22.2467 47.5106C22.2467 46.4161 23.4004 45.7061 24.3471 46.1794C27.69 47.8656 31.4767 48.8123 35.5 48.8123C39.5233 48.8123 43.3396 47.8656 46.7121 46.1794Z" fill="#7E350D"/>
</svg>
