<svg width="56" height="56" viewBox="0 0 56 56" fill="none" xmlns="http://www.w3.org/2000/svg">
<path d="M53.41 20.0669L33.9967 14.7702C30.8 13.9026 27.3923 14.2952 24.4767 15.8669L15.9367 20.5336L3.5 22.8669C2.57577 22.8669 1.68905 23.2324 1.03334 23.8838C0.377629 24.5351 0.00616153 25.4194 0 26.3436L0 33.3436C0 34.2718 0.368749 35.1621 1.02513 35.8184C1.6815 36.4748 2.57174 36.8436 3.5 36.8436H5.83333C6.06266 38.1969 6.76372 39.4253 7.81225 40.3111C8.86078 41.1969 10.1891 41.6828 11.5617 41.6828C12.9343 41.6828 14.2626 41.1969 15.3111 40.3111C16.3596 39.4253 17.0607 38.1969 17.29 36.8436H38.5C38.7293 38.1969 39.4304 39.4253 40.4789 40.3111C41.5275 41.1969 42.8557 41.6828 44.2283 41.6828C45.6009 41.6828 46.9292 41.1969 47.9777 40.3111C49.0263 39.4253 49.7273 38.1969 49.9567 36.8436H52.29C53.2183 36.8436 54.1085 36.4748 54.7649 35.8184C55.4213 35.1621 55.79 34.2718 55.79 33.3436V23.3336C55.7798 22.6098 55.5454 21.907 55.1192 21.322C54.6929 20.7369 54.0958 20.2985 53.41 20.0669ZM42 19.3902V20.5102H40.3667L39.4567 18.6669L42 19.3902ZM25.6667 17.9436C27.9113 16.7458 30.5128 16.3978 32.9933 16.9636H33.46H33.8567L36.5167 17.6869L37.8233 20.3236H21L25.6667 17.9436ZM11.6667 39.3402C10.9744 39.3402 10.2977 39.135 9.72217 38.7504C9.1466 38.3658 8.698 37.8192 8.43309 37.1796C8.16818 36.5401 8.09887 35.8363 8.23392 35.1574C8.36897 34.4785 8.70231 33.8548 9.19179 33.3654C9.68128 32.8759 10.3049 32.5425 10.9839 32.4075C11.6628 32.2724 12.3665 32.3417 13.0061 32.6067C13.6456 32.8716 14.1922 33.3202 14.5768 33.8957C14.9614 34.4713 15.1667 35.148 15.1667 35.8402C15.1667 36.7685 14.7979 37.6587 14.1415 38.3151C13.4852 38.9715 12.5949 39.3402 11.6667 39.3402ZM44.3333 39.3402C43.6411 39.3402 42.9644 39.135 42.3888 38.7504C41.8133 38.3658 41.3647 37.8192 41.0998 37.1796C40.8349 36.5401 40.7655 35.8363 40.9006 35.1574C41.0356 34.4785 41.369 33.8548 41.8585 33.3654C42.3479 32.8759 42.9716 32.5425 43.6505 32.4075C44.3295 32.2724 45.0332 32.3417 45.6727 32.6067C46.3123 32.8716 46.8589 33.3202 47.2435 33.8957C47.6281 34.4713 47.8333 35.148 47.8333 35.8402C47.8333 36.7685 47.4646 37.6587 46.8082 38.3151C46.1518 38.9715 45.2616 39.3402 44.3333 39.3402ZM53.6667 27.5102H52.5C52.1906 27.5102 51.8938 27.6331 51.675 27.8519C51.4563 28.0707 51.3333 28.3675 51.3333 28.6769C51.3333 28.9863 51.4563 29.2831 51.675 29.5019C51.8938 29.7206 52.1906 29.8436 52.5 29.8436H53.6667V33.3436C53.6667 33.653 53.5438 33.9497 53.325 34.1685C53.1062 34.3873 52.8094 34.5102 52.5 34.5102H50.0033C49.7056 33.2328 48.9844 32.0938 47.957 31.2783C46.9297 30.4629 45.6566 30.0191 44.345 30.0191C43.0334 30.0191 41.7603 30.4629 40.733 31.2783C39.7056 32.0938 38.9844 33.2328 38.6867 34.5102H17.3367C17.0389 33.2328 16.3177 32.0938 15.2904 31.2783C14.263 30.4629 12.99 30.0191 11.6783 30.0191C10.3667 30.0191 9.09365 30.4629 8.0663 31.2783C7.03895 32.0938 6.31774 33.2328 6.02 34.5102H3.5C3.19058 34.5102 2.89383 34.3873 2.67504 34.1685C2.45625 33.9497 2.33333 33.653 2.33333 33.3436V29.8436H3.5C3.80942 29.8436 4.10617 29.7206 4.32496 29.5019C4.54375 29.2831 4.66667 28.9863 4.66667 28.6769C4.66667 28.3675 4.54375 28.0707 4.32496 27.8519C4.10617 27.6331 3.80942 27.5102 3.5 27.5102H2.33333V26.3436C2.34203 26.1738 2.38499 26.0075 2.45964 25.8547C2.53429 25.702 2.63908 25.5659 2.7677 25.4548C2.89632 25.3436 3.04611 25.2596 3.20806 25.2078C3.37 25.1561 3.54074 25.1376 3.71 25.1536L16.3333 22.8436H43.1667C43.4761 22.8436 43.7728 22.7206 43.9916 22.5019C44.2104 22.2831 44.3333 21.9863 44.3333 21.6769V20.0202L52.8033 22.3536C53.0286 22.4122 53.2311 22.5368 53.385 22.7114C53.5388 22.8861 53.6369 23.1027 53.6667 23.3336V27.5102ZM36.1667 29.8436H19.8333C19.5239 29.8436 19.2272 29.9665 19.0084 30.1853C18.7896 30.4041 18.6667 30.7008 18.6667 31.0102C18.6667 31.3196 18.7896 31.6164 19.0084 31.8352C19.2272 32.054 19.5239 32.1769 19.8333 32.1769H36.1667C36.4761 32.1769 36.7728 32.054 36.9916 31.8352C37.2104 31.6164 37.3333 31.3196 37.3333 31.0102C37.3333 30.7008 37.2104 30.4041 36.9916 30.1853C36.7728 29.9665 36.4761 29.8436 36.1667 29.8436Z" fill="#F2F2F2"/>
</svg>
