<svg width="36" height="35" viewBox="0 0 36 35" fill="none" xmlns="http://www.w3.org/2000/svg">
<g clip-path="url(#clip0_36_89)">
<path d="M35.0837 17.5C35.0837 7.83234 27.2448 0 17.5837 0C7.91603 0 0.0836868 7.83234 0.0836868 17.5C0.0836868 26.2325 6.48103 33.4731 14.8493 34.7845V22.5597H10.4054V17.5011H14.8493V13.6434C14.8493 9.25859 17.4579 6.83703 21.4567 6.83703C23.3718 6.83703 25.3767 7.17828 25.3767 7.17828V11.4844H23.1662C20.9962 11.4844 20.3181 12.8352 20.3181 14.2188V17.5H25.171L24.3912 22.5586H20.3181V34.7834C28.6798 33.472 35.0837 26.2314 35.0837 17.4989V17.5Z" fill="#FD5C02"/>
</g>
<defs>
<clipPath id="clip0_36_89">
<rect width="35" height="35" fill="white" transform="translate(0.0836868)"/>
</clipPath>
</defs>
</svg>
