<svg width="55" height="55" viewBox="0 0 55 55" fill="none" xmlns="http://www.w3.org/2000/svg">
<g clip-path="url(#clip0_16_25)">
<path d="M26.6406 10.3125C26.8685 10.3125 27.0871 10.222 27.2483 10.0608C27.4095 9.89966 27.5 9.68108 27.5 9.45316V6.01566C27.5 5.78774 27.4095 5.56915 27.2483 5.40799C27.0871 5.24682 26.8685 5.15628 26.6406 5.15628C26.4127 5.15628 26.1941 5.24682 26.033 5.40799C25.8718 5.56915 25.7812 5.78774 25.7812 6.01566V9.45316C25.7812 9.68108 25.8718 9.89966 26.033 10.0608C26.1941 10.222 26.4127 10.3125 26.6406 10.3125ZM29.6931 10.2214C29.7941 10.2719 29.9041 10.302 30.0167 10.31C30.1293 10.318 30.2424 10.3037 30.3495 10.2679C30.4567 10.2322 30.5557 10.1757 30.6409 10.1016C30.7262 10.0276 30.796 9.93748 30.8464 9.83644L32.5652 6.39894C32.667 6.19495 32.6837 5.95885 32.6115 5.74256C32.5393 5.52628 32.3841 5.34754 32.1802 5.24566C31.9762 5.14378 31.7401 5.1271 31.5238 5.19931C31.3075 5.27151 31.1288 5.42667 31.0269 5.63066L29.3081 9.06816C29.2576 9.16915 29.2275 9.27911 29.2196 9.39174C29.2116 9.50438 29.2259 9.61748 29.2616 9.72458C29.2974 9.83169 29.3539 9.9307 29.4279 10.0159C29.502 10.1012 29.5921 10.171 29.6931 10.2214ZM22.4331 9.83644C22.535 10.0404 22.7137 10.1956 22.93 10.2678C23.1463 10.34 23.3824 10.3233 23.5864 10.2214C23.7904 10.1196 23.9456 9.94082 24.0178 9.72453C24.09 9.50825 24.0733 9.27215 23.9714 9.06816L22.2527 5.63066C22.1508 5.42667 21.972 5.27151 21.7558 5.19931C21.5395 5.1271 21.3034 5.14378 21.0994 5.24566C20.8954 5.34754 20.7402 5.52628 20.668 5.74256C20.5958 5.95885 20.6125 6.19495 20.7144 6.39894L22.4331 9.83644ZM47.2656 18.9063V17.1875C47.2615 17.158 47.2558 17.1288 47.2484 17.0999C48.513 16.3822 49.5154 15.2794 50.1096 13.9523C50.7037 12.6252 50.8587 11.143 50.5518 9.72174C50.2449 8.30045 49.4922 7.01426 48.4034 6.05055C47.3146 5.08684 45.9465 4.49594 44.4984 4.36394C44.4178 4.33469 44.3332 4.31789 44.2475 4.3141H44.2303C44.2049 4.31799 44.1796 4.32315 44.1547 4.32956C44.0464 4.32956 43.945 4.29691 43.835 4.29691C42.322 4.29217 40.8499 4.78833 39.6484 5.70798C38.4469 6.62764 37.5836 7.91908 37.1931 9.38087C36.8026 10.8427 36.9068 12.3926 37.4896 13.7889C38.0724 15.1852 39.1009 16.3494 40.4147 17.0999C40.405 17.1286 40.397 17.1579 40.3906 17.1875V18.9063H37.993C37.4839 18.9072 36.986 18.7564 36.563 18.4732L27.1098 12.1757C27.0927 12.1636 27.0686 12.1671 27.0497 12.1568C27.0308 12.1464 27.0239 12.1258 27.005 12.1172C26.8715 12.0943 26.738 12.0714 26.6045 12.0485C26.531 12.0545 26.4587 12.0707 26.3897 12.0966C26.3342 12.1031 26.2795 12.1152 26.2264 12.1327C26.2023 12.1464 26.1903 12.1739 26.168 12.1894C26.1456 12.2049 26.1164 12.2032 26.0958 12.2203L18.4439 18.3425C17.9894 18.7056 17.4255 18.9043 16.8438 18.9063H14.6094V17.1875C14.6053 17.158 14.5995 17.1288 14.5922 17.0999C15.906 16.3494 16.9345 15.1852 17.5173 13.7889C18.1001 12.3926 18.2043 10.8427 17.8138 9.38087C17.4233 7.91908 16.56 6.62764 15.3585 5.70798C14.157 4.78833 12.6849 4.29217 11.1719 4.29691C11.055 4.29691 10.9467 4.32613 10.8281 4.33128C10.7987 4.3239 10.7688 4.31816 10.7388 4.3141C10.6488 4.31751 10.56 4.3355 10.4758 4.36738C9.03077 4.50497 7.66722 5.09956 6.58312 6.06482C5.49902 7.03007 4.7508 8.31575 4.4471 9.73518C4.1434 11.1546 4.30004 12.6339 4.89426 13.9582C5.48848 15.2826 6.48936 16.3831 7.75156 17.0999C7.74423 17.1288 7.73849 17.158 7.73438 17.1875V18.9063C5.68309 18.9063 3.71582 19.7212 2.26535 21.1716C0.814869 22.6221 0 24.5894 0 26.6407L0 36.9532C0 37.5174 0.111142 38.0762 0.32708 38.5975C0.543018 39.1188 0.859524 39.5925 1.25853 39.9915C1.65753 40.3905 2.13121 40.707 2.65253 40.923C3.17385 41.1389 3.7326 41.25 4.29688 41.25H5.15625V52.4219C5.15625 53.1057 5.42787 53.7614 5.91137 54.2449C6.39486 54.7284 7.05061 55 7.73438 55H14.7727C15.429 55.0014 16.0612 54.7523 16.5403 54.3035C17.0193 53.8548 17.3092 53.2403 17.3508 52.5852L17.1875 37.0116L18.8478 25.3808L25.2416 20.2675C25.8508 19.77 26.356 19.1574 26.7283 18.4646C27.1688 19.1901 27.7588 19.8136 28.4591 20.2933L36.1573 25.4238L37.8125 37.0116L37.663 52.678C37.7242 53.315 38.0211 53.9061 38.4954 54.3357C38.9698 54.7652 39.5874 55.0021 40.2273 55H47.2656C47.9494 55 48.6051 54.7284 49.0886 54.2449C49.5721 53.7614 49.8438 53.1057 49.8438 52.4219V41.25H50.7031C51.2674 41.25 51.8261 41.1389 52.3475 40.923C52.8688 40.707 53.3425 40.3905 53.7415 39.9915C54.1405 39.5925 54.457 39.1188 54.6729 38.5975C54.8889 38.0762 55 37.5174 55 36.9532V26.6407C55 24.5894 54.1851 22.6221 52.7347 21.1716C51.2842 19.7212 49.3169 18.9063 47.2656 18.9063ZM11.1719 6.01566C12.3706 6.01721 13.5314 6.43641 14.4546 7.20116C15.3777 7.96591 16.0056 9.02842 16.2302 10.206L13.4802 9.09738C12.5949 8.74268 11.6171 8.69071 10.6992 8.94956L6.10844 10.2541C6.3232 9.06683 6.94751 7.99247 7.87269 7.21803C8.79788 6.44359 9.96534 6.01811 11.1719 6.01566ZM6.09984 12.0107C6.14995 12.0112 6.20001 12.0072 6.24937 11.9986L11.1719 10.6013C11.7232 10.4445 12.311 10.476 12.8425 10.6907L16.0119 11.9694C16.0884 11.996 16.1682 12.0116 16.2491 12.0158C16.0528 13.219 15.435 14.3132 14.5061 15.1028C13.5773 15.8924 12.3979 16.326 11.1788 16.326C9.95963 16.326 8.78024 15.8924 7.85138 15.1028C6.92252 14.3132 6.30473 13.219 6.10844 12.0158L6.09984 12.0107ZM12.8906 17.8028V20.625C12.8906 21.0809 12.7095 21.518 12.3872 21.8404C12.0649 22.1627 11.6277 22.3438 11.1719 22.3438C10.716 22.3438 10.2789 22.1627 9.95654 21.8404C9.63421 21.518 9.45312 21.0809 9.45312 20.625V17.8028C10.0133 17.9573 10.5909 18.0394 11.1719 18.0469C11.7529 18.0394 12.3305 17.9573 12.8906 17.8028ZM5.15625 36.9532V39.5313H4.29688C3.61311 39.5313 2.95736 39.2597 2.47387 38.7762C1.99037 38.2927 1.71875 37.6369 1.71875 36.9532V36.0938H5.15625V36.9532ZM14.7727 53.2813H12.0312V42.1094C12.0312 41.8815 11.9407 41.6629 11.7795 41.5017C11.6184 41.3406 11.3998 41.25 11.1719 41.25C10.944 41.25 10.7254 41.3406 10.5642 41.5017C10.403 41.6629 10.3125 41.8815 10.3125 42.1094V53.2813H7.73438C7.50645 53.2813 7.28787 53.1907 7.12671 53.0296C6.96554 52.8684 6.875 52.6498 6.875 52.4219V37.8125H15.4688L15.62 52.5078C15.5988 52.7185 15.5007 52.9139 15.3443 53.0567C15.1879 53.1994 14.9844 53.2794 14.7727 53.2813ZM17.5106 24.2499C17.3396 24.3865 17.2271 24.5832 17.1961 24.7999L15.5822 36.0938H6.875V30.0782C6.875 29.8502 6.78446 29.6317 6.62329 29.4705C6.46213 29.3093 6.24355 29.2188 6.01562 29.2188C5.7877 29.2188 5.56912 29.3093 5.40796 29.4705C5.24679 29.6317 5.15625 29.8502 5.15625 30.0782V34.375H1.71875V26.6407C1.71875 25.0452 2.35254 23.5151 3.48069 22.387C4.60883 21.2588 6.13893 20.625 7.73438 20.625C7.73438 21.5367 8.09654 22.4111 8.7412 23.0557C9.38585 23.7004 10.2602 24.0625 11.1719 24.0625C12.0836 24.0625 12.9579 23.7004 13.6026 23.0557C14.2472 22.4111 14.6094 21.5367 14.6094 20.625H16.8438C17.8194 20.6237 18.7658 20.2917 19.5284 19.6832L22.3438 17.4282V20.1953C22.3492 20.2502 22.3601 20.3043 22.3764 20.3569L17.5106 24.2499ZM25.7812 15.2883V15.5702C25.783 16.2148 25.6389 16.8515 25.3597 17.4325C25.0805 18.0135 24.6735 18.5238 24.1691 18.9252L24.0625 19.0077V16.0532L25.7812 14.6782V15.2883ZM43.8281 6.01566C45.0344 6.01804 46.2017 6.44327 47.1268 7.21737C48.052 7.99147 48.6764 9.06543 48.8916 10.2524L44.2991 8.94785C43.3811 8.68925 42.4035 8.74121 41.5181 9.09566L38.7681 10.2043C38.9931 9.02673 39.6214 7.96439 40.5448 7.19995C41.4683 6.43551 42.6293 6.01674 43.8281 6.01566ZM38.7578 12.0141C38.8387 12.0099 38.9185 11.9943 38.995 11.9677L42.1609 10.6907C42.6927 10.4775 43.2801 10.4461 43.8316 10.6013L48.7489 11.9986C48.7983 12.0073 48.8483 12.0113 48.8984 12.0107C48.7021 13.2139 48.0844 14.3081 47.1555 15.0977C46.2266 15.8873 45.0472 16.3208 43.8281 16.3208C42.609 16.3208 41.4296 15.8873 40.5008 15.0977C39.5719 14.3081 38.9541 13.2139 38.7578 12.0107V12.0141ZM45.5469 17.8028V20.625C45.5469 21.0809 45.3658 21.518 45.0435 21.8404C44.7211 22.1627 44.284 22.3438 43.8281 22.3438C43.3723 22.3438 42.9351 22.1627 42.6128 21.8404C42.2905 21.518 42.1094 21.0809 42.1094 20.625V17.8028C43.2321 18.1282 44.4241 18.1282 45.5469 17.8028ZM29.2188 18.6949C28.6878 18.2992 28.2561 17.7854 27.9578 17.1942C27.6595 16.603 27.5028 15.9505 27.5 15.2883V14.4977L29.2188 15.6407V18.6949ZM48.125 38.6719V52.4219C48.125 52.6498 48.0345 52.8684 47.8733 53.0296C47.7121 53.1907 47.4935 53.2813 47.2656 53.2813H44.6875V42.1094C44.6875 41.8815 44.597 41.6629 44.4358 41.5017C44.2746 41.3406 44.056 41.25 43.8281 41.25C43.6002 41.25 43.3816 41.3406 43.2205 41.5017C43.0593 41.6629 42.9688 41.8815 42.9688 42.1094V53.2813H40.2273C40.0263 53.2853 39.8302 53.2188 39.6732 53.0931C39.5161 52.9675 39.4081 52.7908 39.368 52.5938L39.5312 37.8125H48.125V38.6719ZM53.2812 36.9532C53.2812 37.6369 53.0096 38.2927 52.5261 38.7762C52.0426 39.2597 51.3869 39.5313 50.7031 39.5313H49.8438V36.0938H53.2812V36.9532ZM53.2812 34.375H49.8438V30.0782C49.8438 29.8502 49.7532 29.6317 49.592 29.4705C49.4309 29.3093 49.2123 29.2188 48.9844 29.2188C48.7565 29.2188 48.5379 29.3093 48.3767 29.4705C48.2155 29.6317 48.125 29.8502 48.125 30.0782V36.0938H39.4178L37.8125 24.7999C37.7953 24.6802 37.753 24.5656 37.6884 24.4634C37.6238 24.3612 37.5385 24.2738 37.4378 24.2069L30.9375 19.8791V16.7853L35.6108 19.8997C36.3161 20.3718 37.146 20.6231 37.9947 20.6216H40.3906C40.3906 21.5333 40.7528 22.4076 41.3974 23.0523C42.0421 23.6969 42.9164 24.0591 43.8281 24.0591C44.7398 24.0591 45.6141 23.6969 46.2588 23.0523C46.9035 22.4076 47.2656 21.5333 47.2656 20.6216C48.0559 20.6216 48.8384 20.7773 49.5685 21.0798C50.2986 21.3824 50.9619 21.8258 51.5205 22.3847C52.0792 22.9437 52.5222 23.6073 52.8243 24.3375C53.1264 25.0678 53.2817 25.8504 53.2812 26.6407V34.375Z" fill="#F2F2F2"/>
</g>
<defs>
<clipPath id="clip0_16_25">
<rect width="55" height="55" fill="white"/>
</clipPath>
</defs>
</svg>
