<svg width="36" height="35" viewBox="0 0 36 35" fill="none" xmlns="http://www.w3.org/2000/svg">
<path d="M18.412 11.6642C15.1985 11.6642 12.5761 14.2866 12.5761 17.5C12.5761 20.7134 15.1985 23.3358 18.412 23.3358C21.6254 23.3358 24.2478 20.7134 24.2478 17.5C24.2478 14.2866 21.6254 11.6642 18.412 11.6642ZM35.915 17.5C35.915 15.0834 35.9369 12.6886 35.8012 10.2764C35.6655 7.47448 35.0263 4.9878 32.9774 2.93891C30.9242 0.885649 28.4419 0.250846 25.64 0.115129C23.2233 -0.0205877 20.8286 0.0013022 18.4163 0.0013022C15.9997 0.0013022 13.605 -0.0205877 11.1927 0.115129C8.39082 0.250846 5.90414 0.890027 3.85526 2.93891C1.80199 4.99217 1.16719 7.47448 1.03147 10.2764C0.895756 12.693 0.917646 15.0877 0.917646 17.5C0.917646 19.9123 0.895756 22.3114 1.03147 24.7236C1.16719 27.5255 1.80637 30.0122 3.85526 32.0611C5.90852 34.1143 8.39082 34.7492 11.1927 34.8849C13.6093 35.0206 16.0041 34.9987 18.4163 34.9987C20.833 34.9987 23.2277 35.0206 25.64 34.8849C28.4419 34.7492 30.9286 34.11 32.9774 32.0611C35.0307 30.0078 35.6655 27.5255 35.8012 24.7236C35.9413 22.3114 35.915 19.9166 35.915 17.5ZM18.412 26.4792C13.443 26.4792 9.43277 22.469 9.43277 17.5C9.43277 12.531 13.443 8.52081 18.412 8.52081C23.3809 8.52081 27.3912 12.531 27.3912 17.5C27.3912 22.469 23.3809 26.4792 18.412 26.4792ZM27.7589 10.2501C26.5987 10.2501 25.6619 9.31322 25.6619 8.15306C25.6619 6.9929 26.5987 6.05602 27.7589 6.05602C28.9191 6.05602 29.856 6.9929 29.856 8.15306C29.8563 8.42854 29.8023 8.70139 29.697 8.95597C29.5918 9.21055 29.4373 9.44187 29.2425 9.63666C29.0477 9.83146 28.8164 9.98592 28.5618 10.0912C28.3072 10.1964 28.0344 10.2504 27.7589 10.2501Z" fill="#FD5C02"/>
</svg>
