<svg width="72" height="72" viewBox="0 0 72 72" fill="none" xmlns="http://www.w3.org/2000/svg">
<path d="M54 6H18C13.02 6 9 9.99 9 14.91V47.64C9 52.56 13.02 56.55 18 56.55H20.28C22.68 56.55 24.96 57.48 26.64 59.16L31.77 64.23C34.11 66.54 37.92 66.54 40.26 64.23L45.39 59.16C47.07 57.48 49.38 56.55 51.75 56.55H54C58.98 56.55 63 52.56 63 47.64V14.91C63 9.99 58.98 6 54 6ZM50.04 31.5L46.53 42.18C46.08 43.95 44.19 45.39 42.27 45.39H36.72C35.76 45.39 34.41 45.06 33.81 44.46L29.4 41.01C29.31 42.93 28.44 43.74 26.31 43.74H24.87C22.65 43.74 21.75 42.87 21.75 40.77V26.46C21.75 24.36 22.65 23.49 24.87 23.49H26.34C28.56 23.49 29.46 24.36 29.46 26.46V27.54L35.28 18.9C35.88 17.97 37.41 17.31 38.7 17.82C40.11 18.3 41.01 19.86 40.71 21.24L39.99 25.92C39.9 26.31 39.99 26.73 40.26 27C40.5 27.27 40.86 27.45 41.25 27.45H47.1C48.24 27.45 49.2 27.9 49.77 28.71C50.31 29.49 50.4 30.48 50.04 31.5Z" fill="#7E350D"/>
</svg>
