<svg width="71" height="71" viewBox="0 0 71 71" fill="none" xmlns="http://www.w3.org/2000/svg">
<path d="M53.25 5.91669H17.75C12.8392 5.91669 8.875 9.85127 8.875 14.7029V46.9784C8.875 51.83 12.8392 55.7942 17.75 55.7942H19.9983C22.3354 55.7942 24.6133 56.7113 26.27 58.3679L31.3288 63.3675C33.6362 65.6454 37.3637 65.6454 39.6712 63.3675L44.73 58.3679C46.3867 56.7113 48.6646 55.7942 51.0017 55.7942H53.25C58.1608 55.7942 62.125 51.83 62.125 46.9784V14.7029C62.125 9.85127 58.1608 5.91669 53.25 5.91669ZM35.5 16.4188C38.695 16.4188 41.2687 19.0221 41.2687 22.1875C41.2687 25.3234 38.7837 27.8379 35.7071 27.9563C35.5887 27.9563 35.4112 27.9563 35.2633 27.9563C32.1571 27.8379 29.7017 25.3234 29.7017 22.1875C29.7312 19.0221 32.305 16.4188 35.5 16.4188ZM43.6354 43.4579C39.1683 46.4459 31.8317 46.4459 27.3646 43.4579C23.43 40.8546 23.43 36.5354 27.3646 33.9025C31.8612 30.9146 39.1979 30.9146 43.6354 33.9025C47.57 36.5354 47.57 40.825 43.6354 43.4579Z" fill="#7E350D"/>
</svg>
