<svg width="1728" height="500" viewBox="0 0 1728 500" fill="none" xmlns="http://www.w3.org/2000/svg">
<mask id="mask0_16_6" style="mask-type:alpha" maskUnits="userSpaceOnUse" x="0" y="0" width="1728" height="500">
<rect width="1728" height="500" fill="#FD5C02"/>
</mask>
<g mask="url(#mask0_16_6)">
<g style="mix-blend-mode:screen" opacity="0.66">
<path d="M-1593.86 2525.11C-1593.86 2525.11 -1464.78 2004.6 239.594 1190.46C1943.97 376.319 2486.32 -605.066 2508.32 -944.693M-1582.77 2528.07C-1582.77 2528.07 -1492.62 2152.75 -423.32 1509.48C-238.446 1397.96 -22.3643 1281.92 227.472 1161.52C1240.12 673.785 1889.82 153.741 2205.77 -263.703C2424.54 -550.693 2516.54 -806.191 2524.83 -934.136M-1571.67 2531C-1571.67 2531 -1485.29 2158.99 -431.805 1489.05C-249.195 1372.33 -33.6258 1253.63 215.384 1132.59C1221.25 644.076 1915.58 149.787 2223.55 -250.574C2441.56 -533.984 2533.64 -804.154 2541.39 -923.572M-1560.57 2533.93C-1560.57 2533.93 -1477.94 2165.25 -440.279 1468.59C-259.934 1346.67 -44.8771 1225.31 203.271 1103.62C1202.37 614.35 1942.13 146.384 2241.31 -237.517C2459.1 -516.992 2550.72 -802.207 2557.9 -913.098M-1549.47 2536.86C-1549.47 2536.86 -1470.6 2171.51 -448.779 1448.14C-270.678 1321.01 -56.1738 1197.02 191.148 1074.69C1183.46 584.633 1968.77 143.062 2259.05 -224.397C2476.66 -499.896 2567.79 -800.177 2574.42 -902.542M-1538.35 2539.81C-1538.35 2539.81 -1461.58 2179.97 -457.24 1427.69C-281.105 1295.77 -67.4127 1168.72 179.083 1045.74C1164.61 554.912 1995.56 139.827 2276.84 -211.302C2494.34 -482.791 2584.91 -798.171 2590.98 -892.01M-1527.26 2542.74C-1527.26 2542.74 -1454.06 2186.36 -465.738 1407.24C-291.819 1270.14 -78.7009 1140.39 166.948 1016.79C1145.69 525.177 2022.38 136.631 2294.57 -198.2C2512 -465.637 2601.94 -796.166 2607.48 -881.471M-1516.18 2545.69C-1516.18 2545.69 -1446.6 2192.69 -474.238 1386.79C-302.549 1244.5 -89.9771 1112.08 154.845 987.835C1126.82 495.466 2049.32 133.495 2312.34 -185.093C2529.76 -448.466 2619.03 -794.149 2624.02 -870.928M-1505.06 2548.64C-1505.06 2548.64 -1439.16 2198.91 -482.72 1366.36C-313.296 1218.87 -101.257 1083.81 142.725 958.902C1107.92 465.754 2076.34 130.465 2330.09 -172.003C2547.56 -431.23 2636.11 -792.149 2640.54 -860.402M-1493.96 2551.57C-1493.96 2551.57 -1431.83 2205.06 -491.183 1345.92C-324.004 1193.22 -112.497 1055.5 130.659 929.957C1089.07 436.031 2103.52 127.5 2347.89 -158.888C2565.49 -413.934 2653.23 -790.145 2657.11 -849.851M-1482.86 2554.5C-1482.86 2554.5 -1424.54 2211.15 -499.681 1325.46C-334.76 1167.53 -123.772 1027.2 118.537 901.021C1070.17 406.316 2130.74 124.632 2365.63 -145.786C2583.44 -396.563 2670.29 -788.133 2673.6 -839.299M-1471.76 2557.43C-1471.76 2557.43 -1417.33 2217.17 -508.157 1305C-345.528 1141.83 -135.024 998.876 106.444 872.039C1051.31 376.575 2158.09 121.827 2383.4 -132.71C2601.53 -379.129 2687.39 -786.148 2690.14 -828.787M-1460.67 2560.4C-1460.67 2560.4 -1411.85 2221.61 -516.66 1284.58C-356.61 1115.89 -146.305 970.601 94.3162 843.137C1032.4 346.894 2185.52 119.177 2401.13 -119.575C2619.68 -361.56 2704.44 -784.102 2706.64 -818.215M-1449.57 2563.33C-1449.57 2563.33 -1404.52 2227.84 -525.139 1264.12C-367.354 1090.22 -157.581 942.292 82.234 814.172C1013.53 317.151 2213.09 116.554 2418.93 -106.495C2638.02 -343.917 2721.56 -782.133 2723.22 -807.698M-1438.47 2566.26C-1438.47 2566.26 -1397.18 2234.1 -533.636 1243.67C-378.116 1064.58 -168.855 913.985 70.0994 785.216C994.614 287.416 2240.7 114.05 2436.65 -93.4122C2656.43 -326.099 2738.59 -780.127 2739.71 -797.179M-1427.36 2569.21C-1427.36 2569.21 -1389.82 2240.38 -542.088 1223.24C-388.811 1038.94 -180.082 885.701 58.0451 756.29C975.791 257.732 2268.49 111.719 2454.46 -80.2802C2675.11 -308.054 2755.73 -778.084 2756.28 -786.631M-1416.26 2572.14C-1416.26 2572.14 -1382.49 2246.62 -550.584 1202.79C180.216 285.814 2250.5 155.472 2472.19 -67.177C2693.91 -289.84 2772.78 -776.092 2772.78 -776.092M-1399.1 2565C-1396.7 2560.25 -1327.73 2232.32 -522.731 1228.99C-443.048 1130.38 -349.227 1040.07 -244.717 958.196C590.586 303.738 2209.65 135.244 2429.72 -83.9557C2654.56 -308.867 2740.55 -775.953 2740.55 -775.953M-1381.94 2557.86C-1377.16 2548.37 -1276.21 2215.42 -494.86 1255.17C-415.418 1157.54 -322.937 1067.77 -221.176 986.323C572.086 351.437 2144.64 139.22 2387.24 -100.742C2615.2 -327.887 2708.31 -775.843 2708.31 -775.843M-1364.77 2550.73C-1357.6 2536.48 -1222.76 2200.04 -467.006 1281.37C-387.616 1184.86 -296.65 1095.52 -197.639 1014.49C553.793 399.487 2080.26 143.862 2344.76 -117.52C2576.37 -346.386 2676.1 -775.717 2676.1 -775.717M-1347.61 2543.59C-1338.04 2524.59 -1169.09 2184.84 -439.154 1307.57C-359.803 1212.19 -270.338 1123.3 -174.105 1042.66C535.665 447.868 2015.4 148.013 2302.28 -134.304C2537.1 -365.348 2643.85 -775.604 2643.85 -775.604M-1330.44 2536.45C-1318.48 2512.69 -1115.16 2169.8 -411.281 1333.75C-331.955 1239.53 -243.991 1151.09 -150.569 1070.82C517.761 496.579 1950.51 152.122 2259.8 -151.053C2497.76 -384.325 2611.6 -775.457 2611.6 -775.457M-1313.28 2529.31C-1298.94 2500.82 -1061.02 2154.95 -383.429 1359.95C-304.107 1266.88 -217.67 1178.93 -127.048 1098.97C500.089 545.679 1885.57 156.175 2217.3 -167.852C2458.4 -403.338 2579.36 -775.338 2579.36 -775.338M-1296.11 2522.17C-1279.38 2488.92 -1006.65 2140.26 -355.577 1386.15C-276.232 1294.26 -191.323 1206.81 -103.513 1127.13C482.702 595.15 1820.61 160.215 2174.82 -184.637C2419.04 -422.391 2547.11 -775.226 2547.11 -775.226M-1278.95 2515.03C-1259.82 2477.03 -952.056 2125.76 -327.727 1412.34C-248.359 1321.64 -164.936 1234.75 -79.981 1155.29C465.592 645.034 1755.6 164.25 2132.33 -201.386C2379.64 -441.414 2514.9 -775.071 2514.9 -775.071M-1261.79 2507.89C-1240.26 2465.14 -897.199 2111.47 -299.854 1438.53C-220.412 1349.04 -138.475 1262.7 -56.4378 1183.43C448.848 695.275 1690.62 168.216 2089.86 -218.203C2340.24 -460.527 2482.66 -774.991 2482.66 -774.991M-1244.62 2500.75C-1220.72 2453.26 -842.113 2097.39 -271.987 1464.75C-192.46 1376.5 -112.001 1290.77 -32.9093 1211.63C432.438 746.013 1625.55 172.206 2047.38 -234.948C2300.82 -479.568 2450.41 -774.84 2450.41 -774.84M-1227.47 2493.59C-1201.17 2441.34 -786.812 2083.49 -244.149 1490.92C-164.508 1403.95 -85.4791 1318.86 -9.38848 1239.77C416.423 797.108 1559.72 175.33 2004.88 -251.718C2260.95 -499.113 2418.16 -774.692 2418.16 -774.692M-1210.31 2486.46C-1181.61 2429.46 -731.237 2069.86 -216.274 1517.11C-136.47 1431.44 -58.8083 1347.04 14.1702 1267.93C400.92 848.648 1494.75 179.321 1962.42 -268.51C2221.62 -518.173 2385.94 -774.588 2385.94 -774.588M-1193.14 2479.31C-1162.07 2417.58 -675.444 2056.46 -188.423 1543.31C-108.415 1459 -32.0726 1375.32 37.6893 1296.07C385.884 900.612 1429.73 183.334 1919.94 -285.295C2182.25 -537.192 2353.7 -774.454 2353.7 -774.454M-1175.98 2472.18C-1142.51 2405.68 -619.405 2043.3 -160.571 1569.5C-80.2957 1486.61 -5.19576 1403.71 61.2039 1324.25C371.44 952.959 1364.72 187.35 1877.44 -302.063C2142.87 -556.228 2321.46 -774.34 2321.46 -774.34M-1158.82 2465.04C-1122.95 2393.79 -563.138 2030.42 -132.7 1595.68C-52.0809 1514.27 21.9083 1432.21 84.7583 1352.4C357.694 1005.67 1299.75 191.356 1834.96 -318.846C2103.51 -575.245 2289.22 -774.226 2289.22 -774.226M-1141.65 2457.9C-1095.69 2366.57 -243.302 1859.3 108.282 1380.54C459.866 901.786 2256.97 -774.11 2256.97 -774.11" stroke="#F2F2F7" stroke-width="2.48784" stroke-miterlimit="10"/>
</g>
</g>
</svg>
